<?xml version="1.0" standalone="no"?>
<!DOCTYPE svg PUBLIC "-//W3C//DTD SVG 20010904//EN"
 "http://www.w3.org/TR/2001/REC-SVG-20010904/DTD/svg10.dtd">
<svg version="1.0" xmlns="http://www.w3.org/2000/svg"
 width="256.000000pt" height="256.000000pt" viewBox="0 0 256.000000 256.000000"
 preserveAspectRatio="xMidYMid meet">
<metadata>
Created by potrace 1.14, written by Peter Selinger 2001-2017
</metadata>
<g transform="translate(0.000000,256.000000) scale(0.100000,-0.100000)"
fill="#000000" stroke="none">
<path d="M1087 2548 c28 -7 64 -7 110 -1 l68 10 -110 0 c-95 1 -104 -1 -68 -9z"/>
<path d="M1395 2499 c-229 -92 -326 -120 -430 -126 -74 -4 -100 -1 -149 16
-63 22 -96 27 -96 12 0 -14 28 -33 39 -27 5 3 11 0 13 -6 4 -10 38 -13 129
-13 152 1 214 16 459 113 96 38 189 74 205 80 29 10 29 10 5 11 -14 0 -92 -26
-175 -60z"/>
<path d="M2091 2535 c91 -47 156 -141 166 -240 l5 -52 -53 -6 c-30 -4 -85 -7
-124 -6 -69 0 -70 0 -45 17 14 9 50 40 80 69 l55 52 -66 -19 c-100 -27 -106
-30 -77 -26 15 2 25 0 23 -4 -12 -19 -302 -140 -337 -140 -6 0 -8 6 -5 13 3 8
1 20 -4 28 -7 12 -9 11 -9 -2 0 -12 -17 -19 -69 -28 -96 -15 -95 -15 -114 24
-18 39 -69 75 -105 75 -59 0 -102 -46 -116 -122 -6 -33 -11 -38 -41 -44 -18
-3 -39 -3 -45 1 -7 4 -16 2 -20 -6 -7 -10 -11 -10 -24 0 -13 11 -16 11 -16 -1
0 -10 -14 -18 -42 -22 -24 -4 -58 -9 -75 -12 -29 -6 -33 -4 -33 16 0 108 103
200 275 245 54 14 280 45 329 45 18 0 17 -3 -8 -29 -16 -16 -25 -34 -22 -40
12 -19 99 -12 160 14 l59 24 -28 -29 -27 -29 37 -7 c20 -3 69 -2 108 4 l72 10
-89 -6 -88 -5 31 43 c17 24 31 47 31 51 0 4 -34 -8 -75 -27 -41 -19 -95 -37
-121 -41 l-46 -6 27 42 c14 24 25 45 22 47 -5 5 -247 -22 -331 -37 -84 -15
-162 -46 -226 -89 -30 -20 -80 -45 -110 -55 -134 -44 -220 -109 -248 -189 -14
-41 -23 -51 -48 -58 -16 -4 -41 -19 -54 -33 -13 -14 -28 -25 -34 -25 -17 0
-71 86 -121 193 l-47 98 45 39 c49 43 78 95 79 141 2 62 -34 61 -114 -2 -44
-35 -58 -31 -58 17 0 45 -40 88 -73 79 -36 -11 -49 -36 -42 -78 5 -38 5 -38
-17 -23 -28 20 -62 20 -78 1 -12 -15 -8 -43 17 -104 4 -9 1 -11 -6 -6 -7 4
-23 4 -37 1 -46 -12 -21 -96 29 -96 36 0 153 -44 178 -67 15 -13 51 -65 80
-116 30 -51 68 -111 86 -134 32 -42 32 -43 18 -84 -19 -52 -19 -100 -2 -123
12 -16 10 -22 -14 -45 -66 -66 -66 -236 -1 -294 19 -17 19 -21 6 -52 -41 -100
-22 -194 49 -228 36 -18 37 -20 37 -73 0 -89 49 -164 106 -164 31 0 33 -2 40
-45 7 -48 40 -85 75 -85 11 0 20 -10 24 -30 11 -49 42 -80 81 -80 22 0 34 -5
34 -14 0 -24 48 -66 76 -66 l26 0 -7 -88 c-12 -167 24 -345 76 -373 37 -19 72
-7 94 33 l20 36 33 -29 c24 -22 42 -29 71 -29 49 0 71 21 71 65 0 34 0 34 28
19 33 -17 56 -18 85 -3 29 16 37 28 37 62 0 32 -13 62 -43 94 -23 26 -22 27
22 12 64 -23 119 28 93 86 -26 57 -146 115 -329 160 -59 15 -116 29 -125 31
-13 4 -18 15 -18 38 0 21 -10 44 -30 66 -20 24 -29 46 -30 70 0 19 -9 50 -20
68 -11 18 -20 47 -20 65 l0 32 55 -3 c67 -5 105 15 105 54 0 23 -3 25 -22 19
-58 -18 -75 -17 -96 5 -15 16 -28 21 -47 18 -20 -4 -25 -2 -21 9 3 8 6 19 6
23 0 5 12 2 28 -6 56 -29 152 -5 152 39 0 34 -8 38 -46 19 -33 -15 -35 -15
-64 6 -16 12 -38 22 -49 22 -20 0 -41 27 -41 53 0 11 11 9 47 -9 25 -13 58
-24 72 -24 35 0 71 26 71 51 0 19 -4 20 -41 14 -34 -6 -44 -3 -65 16 -29 27
-31 44 -4 29 28 -15 107 -15 125 0 8 7 15 24 15 38 0 24 -2 24 -45 19 -38 -6
-48 -3 -63 13 -9 11 -27 31 -39 44 -34 35 -15 40 23 6 31 -27 88 -50 125 -50
9 0 27 9 41 19 15 12 33 18 46 14 16 -4 33 7 71 47 55 58 86 123 79 169 -4 29
-2 31 47 46 36 10 76 35 129 79 77 64 180 126 210 126 8 0 37 -14 63 -30 64
-41 112 -53 151 -39 28 10 35 8 63 -15 17 -14 38 -26 48 -26 42 0 68 72 37
103 -12 12 -9 15 19 26 78 28 44 100 -48 102 l-32 0 37 15 c42 18 53 37 36 67
-23 44 -58 49 -109 14 -32 -22 -38 -22 -83 -11 -70 18 -76 30 -16 37 95 11
183 76 211 155 8 23 17 32 32 32 37 0 141 56 171 91 16 19 35 48 43 66 20 49
15 173 -7 173 -4 0 -4 -19 2 -42 12 -54 -5 -125 -41 -175 -29 -40 -104 -86
-158 -98 l-33 -7 0 45 c0 54 -22 119 -58 171 -29 42 -120 106 -149 106 -10 -1
2 -12 28 -25z m-1741 -80 c7 -8 9 -15 4 -15 -5 0 -19 -3 -31 -6 -19 -5 -23 -2
-23 15 0 25 31 29 50 6z m190 -63 c0 -27 -52 -122 -67 -122 -12 0 -53 43 -53
56 0 13 96 94 111 94 5 0 9 -13 9 -28z m-331 -28 c-6 -8 -15 -14 -20 -14 -14
0 -11 28 4 33 20 7 29 -4 16 -19z m-62 -126 c-3 -8 -6 -5 -6 6 -1 11 2 17 5
13 3 -3 4 -12 1 -19z m1318 -25 c36 -36 55 -83 54 -130 l-1 -38 -8 35 c-13 54
-53 75 -82 43 -38 -44 -27 -115 22 -140 l24 -12 -27 -10 c-67 -26 -137 49
-137 148 0 56 19 104 47 120 34 20 79 12 108 -16z m-466 -45 c-10 -29 -18 -74
-19 -100 0 -32 -4 -48 -12 -48 -7 0 -58 -7 -112 -15 -55 -8 -101 -15 -103 -15
-10 0 10 67 28 97 22 35 95 86 166 113 70 28 72 27 52 -32z m1241 13 c-37 -73
-134 -131 -220 -131 -29 0 -39 5 -53 30 -24 40 -73 66 -93 49 -8 -6 -14 -20
-14 -30 0 -10 -4 -20 -9 -23 -11 -7 -111 15 -111 24 0 4 21 15 48 25 26 10 74
32 107 49 66 33 120 42 268 45 l97 1 -20 -39z m-780 -80 c0 -11 -4 -22 -9 -25
-12 -8 -34 21 -26 34 11 17 35 11 35 -9z m459 9 c10 -5 26 -21 36 -36 l17 -27
-43 7 c-53 8 -63 17 -54 45 7 23 17 26 44 11z m-141 -36 c76 -19 94 -31 117
-81 24 -49 14 -75 -40 -101 -25 -12 -89 -49 -142 -82 -52 -34 -98 -59 -100
-56 -11 11 -33 124 -33 171 0 88 16 124 63 145 53 23 54 23 135 4z m213 -61
c6 -17 3 -22 -16 -27 -13 -3 -30 -8 -38 -12 -10 -3 -19 5 -28 28 -7 18 -14 35
-16 38 -2 3 18 3 43 0 36 -4 49 -10 55 -27z m247 -5 c7 -7 12 -21 12 -32 0
-20 -2 -19 -20 4 -11 14 -20 28 -20 33 0 11 15 8 28 -5z m-1518 -46 c0 -19
-33 -73 -50 -82 -13 -7 -22 -5 -34 9 -15 16 -14 19 7 38 38 35 77 52 77 35z
m1570 -97 c0 -8 -4 -17 -10 -20 -6 -4 -10 5 -10 20 0 15 4 24 10 20 6 -3 10
-12 10 -20z m-1191 -74 c36 -45 61 -100 61 -134 0 -18 12 -29 56 -50 30 -15
52 -32 49 -37 -4 -6 16 -10 52 -9 l58 1 -50 12 -50 12 42 8 c28 5 62 2 103 -8
34 -9 64 -16 66 -16 11 0 1 -70 -15 -106 -17 -37 -93 -114 -113 -114 -30 0
-101 59 -124 102 -19 37 -18 41 13 33 27 -6 27 -6 9 14 -31 34 -11 36 62 8
l67 -26 -29 23 c-16 13 -46 31 -67 39 -32 13 -38 13 -43 1 -4 -11 -14 -10 -53
8 -26 13 -51 26 -54 31 -10 14 -113 25 -154 17 l-40 -8 45 -1 c61 -2 122 -19
117 -34 -6 -20 -111 -40 -173 -32 l-56 7 6 39 c13 82 47 149 102 205 30 30 61
54 68 54 8 0 28 -18 45 -39z m445 3 l41 -14 -50 6 c-57 7 -88 20 -80 35 4 5
14 5 27 -2 11 -6 39 -17 62 -25z m-932 -23 c13 -18 18 -21 41 -21 8 0 9 -2 1
-8 -6 -4 -15 -22 -19 -40 -6 -27 -9 -31 -21 -21 -8 7 -12 19 -9 27 3 9 0 12
-9 9 -21 -8 -49 39 -42 69 6 21 10 23 26 14 10 -6 25 -19 32 -29z m692 -14
c25 -32 30 -45 17 -38 -28 15 -72 71 -65 83 3 5 7 8 9 6 1 -2 19 -25 39 -51z
m774 5 c-24 -5 -81 12 -85 25 -3 8 14 6 48 -5 29 -9 46 -18 37 -20z m162 -38
c-18 -21 -24 -10 -9 18 8 14 14 18 17 10 2 -7 -2 -19 -8 -28z m-650 2 c0 -2
-7 -6 -15 -10 -8 -3 -15 -1 -15 4 0 6 7 10 15 10 8 0 15 -2 15 -4z m-1004
-120 c15 -11 20 -23 16 -45 -2 -17 -7 -29 -11 -26 -4 2 -7 -13 -7 -33 0 -20
-4 -46 -9 -57 -4 -11 -7 -28 -6 -37 1 -10 -3 -18 -9 -18 -7 0 -9 -8 -5 -20 7
-21 -1 -25 -22 -12 -20 13 -43 78 -43 122 0 46 19 97 44 123 21 21 26 21 52 3z
m579 -56 c22 -11 45 -20 52 -20 7 0 13 -5 13 -10 0 -21 -29 -21 -74 -1 -33 14
-44 24 -40 35 7 19 2 20 49 -4z m68 -117 c20 -29 32 -55 29 -57 -16 -9 -53 16
-62 41 -6 16 -14 36 -20 45 -6 11 -6 18 3 21 15 5 9 11 50 -50z m-288 -38 c0
-17 -8 -21 -47 -23 -41 -3 -48 -1 -48 16 0 26 2 27 52 27 36 0 43 -4 43 -20z
m353 -54 c-4 -18 -74 -27 -97 -12 -28 18 3 37 54 33 36 -3 45 -8 43 -21z
m-408 -31 c0 -5 -12 -17 -26 -26 -22 -15 -27 -15 -35 -3 -14 22 -11 27 19 37
28 10 42 7 42 -8z m-280 -31 c0 -5 5 -7 10 -4 6 3 10 -1 10 -9 0 -9 -6 -16
-12 -17 -10 0 -10 -2 0 -6 6 -2 12 -16 12 -29 0 -13 -6 -24 -12 -24 -9 0 -8
-4 2 -11 12 -9 13 -12 1 -16 -11 -5 -11 -7 0 -14 12 -8 11 -11 -1 -19 -10 -6
-11 -10 -2 -10 6 0 12 -7 12 -15 0 -19 -13 -19 -50 0 -40 21 -53 74 -35 154 5
26 11 31 36 31 16 0 29 -5 29 -11z m635 -8 c9 -16 -25 -41 -56 -41 -22 0 -29
5 -29 19 0 15 8 21 33 24 17 2 35 5 39 5 4 1 9 -2 13 -7z m-165 -16 c11 -13
10 -14 -4 -9 -9 3 -16 10 -16 15 0 13 6 11 20 -6z m-225 -44 c6 -11 -32 -41
-52 -41 -21 0 -15 26 10 38 28 14 35 14 42 3z m358 -38 c11 -10 -13 -33 -34
-33 -24 0 -25 27 -1 33 27 7 28 7 35 0z m-353 -108 c-16 -19 -40 -19 -40 -2 0
16 43 39 48 25 2 -5 -2 -15 -8 -23z m354 -32 c-21 -15 -44 -17 -44 -3 0 15 54
40 59 28 2 -6 -4 -17 -15 -25z m-535 -30 c-16 -27 5 -73 41 -86 23 -9 30 -18
30 -38 0 -25 -3 -27 -32 -25 -18 2 -37 4 -41 5 -15 2 -47 86 -47 124 0 35 2
37 30 37 26 0 29 -2 19 -17z m191 -38 c0 -12 -28 -35 -44 -35 -13 0 -5 24 12
36 22 18 32 17 32 -1z m360 -25 c0 -14 -48 -35 -58 -26 -8 9 26 36 45 36 7 0
13 -5 13 -10z m-410 -179 c0 -8 7 -23 17 -33 15 -17 15 -18 -1 -18 -40 0 -87
81 -53 93 14 5 37 -20 37 -42z m84 -97 c3 -9 4 -20 0 -25 -3 -5 -1 -9 4 -9 6
0 12 -7 16 -15 3 -10 0 -14 -12 -12 -31 5 -42 18 -42 48 0 31 23 41 34 13z
m106 -104 c0 -5 12 -16 28 -24 l27 -15 -24 -1 c-24 0 -61 25 -61 42 0 4 7 8
15 8 8 0 15 -4 15 -10z m567 -149 c49 -23 71 -55 52 -77 -15 -18 -73 -19 -66
-1 18 49 17 53 -20 75 -47 27 -23 28 34 3z m-42 -193 c12 -26 25 -44 29 -41 4
4 4 0 1 -9 -7 -17 -34 -32 -43 -23 -3 3 -1 5 5 5 14 0 -20 92 -49 134 l-22 31
29 -25 c15 -14 38 -46 50 -72z m-125 -64 c19 -58 11 -79 -34 -82 -32 -3 -44 2
-72 29 -19 18 -34 36 -34 41 0 4 19 17 43 29 23 12 43 23 45 24 2 2 -4 18 -13
37 l-17 33 36 -39 c19 -21 40 -54 46 -72z m-182 -37 c-4 -75 -24 -94 -63 -57
-32 30 -32 50 0 50 30 0 45 25 46 77 0 35 1 36 10 13 5 -13 9 -51 7 -83z"/>
<path d="M885 2030 c-3 -5 -1 -10 4 -10 6 0 11 5 11 10 0 6 -2 10 -4 10 -3 0
-8 -4 -11 -10z"/>
<path d="M1080 1684 c0 -5 14 -27 31 -47 22 -27 35 -35 42 -28 6 6 9 12 6 13
-2 2 -21 19 -42 37 -20 19 -37 31 -37 25z"/>
<path d="M1171 1606 c8 -7 79 -35 79 -31 0 7 -58 35 -71 35 -7 0 -10 -2 -8 -4z"/>
<path d="M1968 2313 c6 -2 18 -2 25 0 6 3 1 5 -13 5 -14 0 -19 -2 -12 -5z"/>
<path d="M1070 2130 c0 -5 5 -10 10 -10 6 0 10 5 10 10 0 6 -4 10 -10 10 -5 0
-10 -4 -10 -10z"/>
<path d="M1794 734 c-28 -27 -62 -70 -77 -95 -25 -43 -70 -159 -64 -165 1 -2
18 29 37 69 24 49 56 93 100 139 47 47 64 71 60 83 -5 15 -15 9 -56 -31z"/>
<path d="M637 590 c-9 -14 -17 -29 -17 -35 0 -7 24 -31 53 -54 91 -74 191
-196 285 -351 29 -46 52 -80 52 -75 0 21 -110 235 -155 304 -27 40 -83 110
-125 154 l-76 81 -17 -24z"/>
<path d="M1805 233 c-39 -20 -62 -41 -88 -78 -20 -28 -19 -28 23 8 24 20 61
43 82 49 21 6 38 17 38 25 0 17 -18 16 -55 -4z"/>
<path d="M798 150 c-4 -27 -2 -30 21 -30 38 -1 110 -36 164 -81 53 -45 59 -43
21 7 -38 49 -97 93 -153 115 l-49 18 -4 -29z"/>
</g>
</svg>
