<?xml version="1.0" standalone="no"?>
<!DOCTYPE svg PUBLIC "-//W3C//DTD SVG 20010904//EN"
 "http://www.w3.org/TR/2001/REC-SVG-20010904/DTD/svg10.dtd">
<svg version="1.0" xmlns="http://www.w3.org/2000/svg"
 width="256.000000pt" height="256.000000pt" viewBox="0 0 256.000000 256.000000"
 preserveAspectRatio="xMidYMid meet">
<metadata>
Created by potrace 1.14, written by Peter Selinger 2001-2017
</metadata>
<g transform="translate(0.000000,256.000000) scale(0.100000,-0.100000)"
fill="#000000" stroke="none">
<path d="M1109 2549 c-56 -8 -210 -44 -239 -56 -8 -3 -19 -7 -25 -9 -58 -19
-85 -30 -85 -36 0 -5 -6 -8 -14 -8 -8 0 -42 -16 -77 -35 -57 -33 -85 -51 -179
-116 -73 -50 -195 -183 -268 -292 -108 -160 -174 -327 -208 -527 -12 -72 -12
-297 1 -375 39 -240 133 -455 276 -626 37 -44 38 -48 25 -74 -8 -15 -13 -40
-11 -56 4 -25 1 -29 -21 -29 -19 0 -25 -5 -22 -17 3 -15 17 -18 113 -18 l110
0 78 -53 c81 -55 226 -132 249 -132 8 0 18 -4 23 -8 17 -15 157 -52 250 -66
54 -8 144 -12 225 -10 154 3 198 9 295 36 22 7 42 12 45 13 3 0 23 7 45 14 39
13 51 18 145 59 25 11 88 49 140 84 l95 63 95 2 c133 2 130 1 130 18 0 9 -9
15 -25 15 -21 0 -24 4 -20 29 2 16 -3 41 -11 56 -13 26 -12 30 24 74 145 174
223 348 278 616 10 53 13 308 3 370 -47 302 -178 552 -400 765 -158 151 -390
268 -629 317 -86 17 -328 25 -411 12z"/>
</g>
</svg>
